<svg xmlns="http://www.w3.org/2000/svg" class="nav-logo__alternative" viewBox="0 0 132.29 132.29"><circle cx="66.14" cy="66.14" r="61.64" fill="#f60" stroke="#fff" stroke-width="8"/><path fill="#fff" d="M88.08 28.46v21h-3.85q-4.31-18.28-21-18.28A18.91 18.91 0 0051.19 35q-4.83 3.8-4.82 8.67a7.5 7.5 0 003.42 6.51q3.42 2.37 16.21 4.06 28 3.46 28 25.49A24.87 24.87 0 0186.72 98a24.4 24.4 0 01-18 7.31q-10.59 0-20.52-8.71l-6.56 5.62h-3.33V74.58h3.28q8.05 26.52 27.08 26.53a20.85 20.85 0 0013.13-4.6q5.9-4.59 5.9-10.78c0-3.43-1.17-6-3.51-7.78s-8.67-3.37-19-4.87q-26.33-3.84-26.32-23.43a21.1 21.1 0 017.07-16.17A24.58 24.58 0 0163.24 27a24.93 24.93 0 0118.09 7.13 26.44 26.44 0 003.84-5.63z"/></svg>